/* XPM */
/* C:\LingMEM\LingMEM\lingmem.exe */
static char *icon[] = {
"32 32 220 2",
"00 c #605F47",
"01 c #5B6147",
"02 c #60674C",
"03 c #5A6443",
"04 c #646E4D",
"05 c #65744B",
"06 c #535542",
"07 c #888562",
"08 c #DCC580",
"09 c #F9E27E",
"0A c #F9D475",
"0B c #FEEC5E",
"0C c #FCE665",
"0D c #F4D467",
"0E c #C5C892",
"0F c #717951",
"10 c #666345",
"11 c #656D46",
"12 c #838152",
"13 c #737A47",
"14 c #757752",
"15 c #7C804F",
"16 c #898649",
"17 c #8E9259",
"18 c #77774B",
"19 c #505743",
"1A c #565B41",
"1B c #4F503D",
"1C c #CECC83",
"1D c #F7CE57",
"1E c #FBDE60",
"1F c #DAB252",
"20 c #F0B14C",
"21 c #F4CD60",
"22 c #FAD75D",
"23 c #F5C054",
"24 c #ECB453",
"25 c #EFBD59",
"26 c #E3D56D",
"27 c #70724C",
"28 c #6A724B",
"29 c #646748",
"2A c #6A6D4D",
"2B c #77824E",
"2C c #5E6142",
"2D c #585A46",
"2E c #F5C75B",
"2F c #E6AE4D",
"30 c #DAAA4E",
"31 c #E9B754",
"32 c #DCAD58",
"33 c #666843",
"34 c #545C47",
"35 c #686044",
"36 c #CD9B4F",
"37 c #D1A44F",
"38 c #EEC255",
"39 c #E2B14E",
"3A c #E1B155",
"3B c #E9BF59",
"3C c #8D7E4A",
"3D c #6A6542",
"3E c #5A5A41",
"3F c #4C4F41",
"40 c #716C48",
"41 c #AD874C",
"42 c #AF8847",
"43 c #D6A250",
"44 c #D2B55A",
"45 c #A1905B",
"46 c #60625F",
"47 c #444040",
"48 c #444940",
"49 c #A09958",
"4A c #E8B75C",
"4B c #5B5F4B",
"4C c #716F52",
"4D c #6B6D48",
"4E c #A97D45",
"4F c #BF8F4A",
"50 c #C29850",
"51 c #4C493D",
"52 c #333532",
"53 c #4A4137",
"54 c #343336",
"55 c #5B5040",
"56 c #413B35",
"57 c #49433D",
"58 c #44433C",
"59 c #715F40",
"5A c #E3A14C",
"5B c #CCA354",
"5C c #7C7348",
"5D c #87734A",
"5E c #C18B48",
"5F c #C69B4D",
"60 c #AE8D4A",
"61 c #9F7643",
"62 c #3F3E37",
"63 c #53443B",
"64 c #383A37",
"65 c #373332",
"66 c #3D3837",
"67 c #443E38",
"68 c #373539",
"69 c #3B3D3A",
"6A c #554D42",
"6B c #BE9051",
"6C c #474A3C",
"6D c #957949",
"6E c #996F46",
"6F c #7F6B57",
"70 c #534839",
"71 c #303436",
"72 c #59453E",
"73 c #534A3F",
"74 c #58483A",
"75 c #9D8962",
"76 c #AE8D51",
"77 c #A8884C",
"78 c #707046",
"79 c #B58749",
"7A c #9D7A46",
"7B c #B0844C",
"7C c #3A3534",
"7D c #615042",
"7E c #665440",
"7F c #755B46",
"80 c #A58650",
"81 c #9A824A",
"82 c #C59550",
"83 c #C29D50",
"84 c #7A6848",
"85 c #454438",
"86 c #655840",
"87 c #CD954C",
"88 c #B79552",
"89 c #4E4037",
"8A c #483C38",
"8B c #47403B",
"8C c #57483F",
"8D c #A3894D",
"8E c #BB924A",
"8F c #B58D4C",
"90 c #A08246",
"91 c #A68046",
"92 c #B78348",
"93 c #4F463B",
"94 c #3E3732",
"95 c #403533",
"96 c #3F3B3A",
"97 c #4C403B",
"98 c #B7944B",
"99 c #967943",
"9A c #A37F4B",
"9B c #514440",
"9C c #47473F",
"9D c #99814F",
"9E c #BB9251",
"9F c #5A533C",
"A0 c #987648",
"A1 c #816A44",
"A2 c #34302F",
"A3 c #363735",
"A4 c #6C7347",
"A5 c #5F493D",
"A6 c #4C4640",
"A7 c #D7B05A",
"A8 c #585444",
"A9 c #8B6C46",
"AA c #463C3C",
"AB c #B29754",
"AC c #BBA050",
"AD c #71794B",
"AE c #81864D",
"AF c #766C41",
"B0 c #8A7047",
"B1 c #7C6043",
"B2 c #D89E4E",
"B3 c #634D40",
"B4 c #6D4D3E",
"B5 c #5E4A42",
"B6 c #4F5446",
"B7 c #9F814B",
"B8 c #6E5D45",
"B9 c #8C7343",
"BA c #E1AA51",
"BB c #DA9F48",
"BC c #CD9C49",
"BD c #907B4C",
"BE c #D29748",
"BF c #EDBA4E",
"C0 c #424341",
"C1 c #423E3D",
"C2 c #63473D",
"C3 c #5B4C43",
"C4 c #927043",
"C5 c #ACA665",
"C6 c #BEAF7E",
"C7 c #E5BE5E",
"C8 c #C78F46",
"C9 c #D4BF6F",
"CA c #C7964A",
"CB c #523E39",
"CC c #5C4F3B",
"CD c #D99642",
"CE c #6B4D43",
"CF c #E9A648",
"D0 c #DF9849",
"D1 c #DAA54B",
"D2 c #E9CD75",
"D3 c #976041",
"D4 c #74706E",
"D5 c #855B3E",
"D6 c #7B5A42",
"D7 c #734A3F",
"D8 c #66453F",
"D9 c #7A473B",
"DA c #8E4A3B",
"   c None",
"000102030405050204060708090A0B0C0D090E0F041011121314151216171810",
"191A1B06190102021C1D1E1F201D2122212324252601272802292A04122B1300",
"062C2D012906020D2E0D242F3031222421322E21210C1805282C02141414332C",
"342D34022D35363725321E2F38211D3839210A3A3B21383C0401011427333D3E",
"1B3F342D404142433143244445464748491F324A43252E3240014B154C4D2C00",
"3F3F3F011F4E4F5031395152535455565758593124235A325B4B0129295C103E",
"1951515D5E5F606142626352646566675668696A4A6B41415F3C02114D18293E",
"6C6C484F614E6D6E6F657071725765577366744775766B6B774319042A783D10",
"516C51414E797A7B5870657C7D7E6A7F7D47717C478081825F838401012A783D",
"8585867B6E874E88648963568A6653578B578C63667A8D8E8F908D010427113E",
"626C6D4E91925E5993748C94956496939747577D936A50604F6098342C01061B",
"6251999A42426E70895652526656979B9667667C9B9C9D6B9E905F3E034D299F",
"8551A079797BA155A27C7C7C66698A57A3677C656947768D6B6D5B021113A433",
"5151A082A061617DA58BA37C6495678B66667C71A653889E9E98A72B13161578",
"A89C6D42A06EA96D8C53668A9797AA57678A7C525851416D8DABAC05ADAEA4AF",
"513F5D828FB0B19E9B7F7C8997679B63978A65A255A96D80603A802827132C1A",
"3F6C4CB24E61845F516465B38C5763B456645465B54E3783AB5078AD28181A03",
"3F51B6B7A0774199B857528C9789947C6652A268475079414F320E1A331A1A2C",
"6A9C3F84A9B07A4F8163A3B563B5746756655297B9366BBA243023BB443E1A2C",
"6C9C6C48838F59BCBD62645772B5AA6954A26694BE8E432539234FBF435F2C33",
"484858C006B941506DC166968AC2C367A27C56C4BB7B4F5BACC5C6C730C8882C",
"6C6C6258516A9AC9696756476666666865526560CAA0B26D69578C95A7BABC33",
"62486262A36968697C666394668B6465A2657C8882777770AA89CB94CC24CD5C",
"58645252576264565666B3CE73A64766656697A07B5D77627CCB56959FCFD0A1",
"64527C7C7C9652657C57A563749373535653567079A9B07C89897C52991F5EAF",
"7C5293525464897C7CB58B528A5793AAA3946766436D5D948A976651372E2010",
"65A25452937C9466AA7D65537CA364C164666457A8B29A84569562D1252F9178",
"665454547C7171548C7D567CA39671C1667C7C64A39D828D569456D2BB5E3316",
"7156655265547CA38C536754AA7168977C9569685896A67FA664D3CBD402AD18",
"6654549566A29694D5668A669765579B52A55768A64772C27DD6CEB4D7D851AF",
"6654A2A294717154D36264A252A27C62667F64A37CAA72CBB5B4D7C2D8D9D99F",
"9452A254A265547C6366AA946772A68B69C0CB57479B47478CD8D7B4D7D9DA67"};
